<svg width="28" height="28" viewBox="0 0 28 28" fill="none" xmlns="http://www.w3.org/2000/svg">
<path d="M13.9965 6.81665C10.0213 6.81665 6.81314 10.0248 6.81314 14C6.81314 17.9752 10.0213 21.1834 13.9965 21.1834C17.9717 21.1834 21.1799 17.9752 21.1799 14C21.1799 10.0248 17.9717 6.81665 13.9965 6.81665ZM13.9965 18.6687C11.4258 18.6687 9.32784 16.5707 9.32784 14C9.32784 11.4293 11.4258 9.33135 13.9965 9.33135C16.5672 9.33135 18.6652 11.4293 18.6652 14C18.6652 16.5707 16.5672 18.6687 13.9965 18.6687ZM21.4741 4.84832C20.5459 4.84832 19.7964 5.59782 19.7964 6.52595C19.7964 7.45408 20.5459 8.20358 21.4741 8.20358C22.4022 8.20358 23.1517 7.45758 23.1517 6.52595C23.152 6.30556 23.1088 6.08729 23.0245 5.88362C22.9403 5.67996 22.8168 5.4949 22.6609 5.33907C22.5051 5.18323 22.32 5.05967 22.1164 4.97546C21.9127 4.89124 21.6944 4.84804 21.4741 4.84832ZM27.999 14C27.999 12.0667 28.0165 10.1509 27.9079 8.2211C27.7993 5.97958 27.288 3.99024 25.6489 2.35113C24.0063 0.708519 22.0204 0.200677 19.7789 0.0921032C17.8456 -0.0164701 15.9298 0.00104176 14 0.00104176C12.0667 0.00104176 10.1509 -0.0164701 8.2211 0.0921032C5.97958 0.200677 3.99024 0.712022 2.35113 2.35113C0.70852 3.99374 0.200677 5.97958 0.0921032 8.2211C-0.0164701 10.1544 0.00104176 12.0702 0.00104176 14C0.00104176 15.9298 -0.0164701 17.8491 0.0921032 19.7789C0.200677 22.0204 0.712022 24.0098 2.35113 25.6489C3.99374 27.2915 5.97958 27.7993 8.2211 27.9079C10.1544 28.0165 12.0702 27.999 14 27.999C15.9333 27.999 17.8491 28.0165 19.7789 27.9079C22.0204 27.7993 24.0098 27.288 25.6489 25.6489C27.2915 24.0063 27.7993 22.0204 27.9079 19.7789C28.02 17.8491 27.999 15.9333 27.999 14ZM24.9169 22.2586C24.6612 22.896 24.353 23.3723 23.8592 23.8627C23.3653 24.3565 22.8925 24.6647 22.2551 24.9204C20.4128 25.6524 16.0384 25.4878 13.9965 25.4878C11.9546 25.4878 7.57666 25.6524 5.73442 24.9239C5.09698 24.6682 4.62066 24.36 4.13033 23.8662C3.6365 23.3723 3.32829 22.8995 3.07262 22.2621C2.34413 20.4163 2.50874 16.0419 2.50874 14C2.50874 11.9581 2.34413 7.58016 3.07262 5.73792C3.32829 5.10049 3.6365 4.62417 4.13033 4.13383C4.62417 3.6435 5.09698 3.33179 5.73442 3.07612C7.57666 2.34763 11.9546 2.51224 13.9965 2.51224C16.0384 2.51224 20.4163 2.34763 22.2586 3.07612C22.896 3.33179 23.3723 3.64 23.8627 4.13383C24.3565 4.62767 24.6647 5.10049 24.9204 5.73792C25.6489 7.58016 25.4843 11.9581 25.4843 14C25.4843 16.0419 25.6489 20.4163 24.9169 22.2586Z" fill="white"/>
</svg>
