<svg width="35" height="35" viewBox="0 0 35 35" fill="none" xmlns="http://www.w3.org/2000/svg">
<path d="M16.25 0H18.75V6.25H16.25V0Z" fill="white"/>
<path d="M24.6084 8.62508L28.9909 4.24133L30.7584 6.01008L26.3759 10.3926L24.6084 8.62508Z" fill="white"/>
<path d="M28.75 16.25H35V18.75H28.75V16.25Z" fill="white"/>
<path d="M24.6084 26.375L26.3759 24.6075L30.7584 28.99L28.9909 30.7588L24.6084 26.375Z" fill="white"/>
<path d="M16.25 28.75H18.75V35H16.25V28.75Z" fill="white"/>
<path d="M4.24219 28.99L8.62469 24.6075L10.3922 26.3763L6.00969 30.7588L4.24219 28.99Z" fill="white"/>
<path d="M0 16.25H6.25V18.75H0V16.25Z" fill="white"/>
<path d="M4.24219 6.01008L6.00969 4.24133L10.3922 8.62508L8.62469 10.3926L4.24219 6.01008Z" fill="white"/>
<path d="M17.5 10C16.0166 10 14.5666 10.4399 13.3332 11.264C12.0999 12.0881 11.1386 13.2594 10.5709 14.6299C10.0032 16.0003 9.85472 17.5083 10.1441 18.9632C10.4335 20.418 11.1478 21.7544 12.1967 22.8033C13.2456 23.8522 14.582 24.5665 16.0368 24.8559C17.4917 25.1453 18.9997 24.9968 20.3701 24.4291C21.7406 23.8614 22.9119 22.9001 23.736 21.6668C24.5601 20.4334 25 18.9834 25 17.5C25 15.5109 24.2098 13.6032 22.8033 12.1967C21.3968 10.7902 19.4891 10 17.5 10Z" fill="white"/>
</svg>
