<svg width="63" height="37" viewBox="0 0 63 37" fill="none" xmlns="http://www.w3.org/2000/svg">
<path fill-rule="evenodd" clip-rule="evenodd" d="M2.60352 4.71045L14.9807 32.0791L15.5295 33.2925L16.0782 32.0791L28.4555 4.71045H27.3579L15.5295 30.8657L3.70102 4.71045H2.60352Z" fill="white"/>
<path d="M2.60352 4.71045V3.96045H1.44121L1.92015 5.0195L2.60352 4.71045ZM14.9807 32.0791L14.2974 32.3882L14.9807 32.0791ZM15.5295 33.2925L14.8461 33.6016L15.5295 35.1126L16.2129 33.6016L15.5295 33.2925ZM16.0782 32.0791L16.7616 32.3882L16.0782 32.0791ZM28.4555 4.71045L29.1388 5.0195L29.6178 3.96045H28.4555V4.71045ZM27.3579 4.71045V3.96045H26.874L26.6746 4.4014L27.3579 4.71045ZM15.5295 30.8657L14.8461 31.1747L15.5295 32.6858L16.2128 31.1747L15.5295 30.8657ZM3.70102 4.71045L4.38439 4.4014L4.18497 3.96045H3.70102V4.71045ZM1.92015 5.0195L14.2974 32.3882L15.6641 31.7701L3.28688 4.4014L1.92015 5.0195ZM14.2974 32.3882L14.8461 33.6016L16.2129 32.9835L15.6641 31.7701L14.2974 32.3882ZM16.2129 33.6016L16.7616 32.3882L15.3949 31.7701L14.8461 32.9835L16.2129 33.6016ZM16.7616 32.3882L29.1388 5.0195L27.7721 4.4014L15.3949 31.7701L16.7616 32.3882ZM28.4555 3.96045H27.3579V5.46045H28.4555V3.96045ZM16.2128 31.1747L28.0413 5.0195L26.6746 4.4014L14.8461 30.5567L16.2128 31.1747ZM3.01766 5.0195L14.8461 31.1747L16.2128 30.5567L4.38439 4.4014L3.01766 5.0195ZM3.70102 3.96045H2.60352V5.46045H3.70102V3.96045Z" fill="white"/>
<path fill-rule="evenodd" clip-rule="evenodd" d="M35.6433 28.31C33.7601 30.7928 31.1518 32.2925 28.3759 32.2925C22.9594 32.2925 18.1816 26.5831 18.1816 19.0015C18.1816 11.4198 22.9594 5.71045 28.3759 5.71045C31.5219 5.71045 34.4525 7.63663 36.3566 10.7371L37.0163 9.9149C34.9632 6.73655 31.8549 4.71045 28.3759 4.71045C22.1935 4.71045 17.1816 11.1088 17.1816 19.0015C17.1816 26.8942 22.1935 33.2925 28.3759 33.2925C31.4722 33.2925 34.2749 31.6876 36.3015 29.0938L35.6433 28.31Z" fill="white"/>
<path d="M35.6433 28.31L36.2177 27.8278L35.6136 27.1083L35.0458 27.8568L35.6433 28.31ZM36.3566 10.7371L35.7175 11.1296L36.2749 12.0372L36.9415 11.2065L36.3566 10.7371ZM37.0163 9.9149L37.6013 10.3843L37.9399 9.96236L37.6463 9.50794L37.0163 9.9149ZM36.3015 29.0938L36.8925 29.5556L37.2665 29.0768L36.8759 28.6116L36.3015 29.0938ZM35.0458 27.8568C33.272 30.1953 30.8684 31.5425 28.3759 31.5425V33.0425C31.4353 33.0425 34.2482 31.3904 36.2409 28.7633L35.0458 27.8568ZM28.3759 31.5425C23.5303 31.5425 18.9316 26.3453 18.9316 19.0015H17.4316C17.4316 26.821 22.3885 33.0425 28.3759 33.0425V31.5425ZM18.9316 19.0015C18.9316 11.6577 23.5303 6.46045 28.3759 6.46045V4.96045C22.3885 4.96045 17.4316 11.182 17.4316 19.0015H18.9316ZM28.3759 6.46045C31.199 6.46045 33.9137 8.19247 35.7175 11.1296L36.9957 10.3446C34.9913 7.08078 31.8449 4.96045 28.3759 4.96045V6.46045ZM36.9415 11.2065L37.6013 10.3843L36.4314 9.4455L35.7716 10.2677L36.9415 11.2065ZM37.6463 9.50794C35.4894 6.16892 32.1669 3.96045 28.3759 3.96045V5.46045C31.5428 5.46045 34.437 7.30418 36.3863 10.3219L37.6463 9.50794ZM28.3759 3.96045C21.619 3.96045 16.4316 10.8755 16.4316 19.0015H17.9316C17.9316 11.3421 22.7679 5.46045 28.3759 5.46045V3.96045ZM16.4316 19.0015C16.4316 27.1275 21.619 34.0425 28.3759 34.0425V32.5425C22.7679 32.5425 17.9316 26.6609 17.9316 19.0015H16.4316ZM28.3759 34.0425C31.7479 34.0425 34.7539 32.2928 36.8925 29.5556L35.7105 28.6321C33.796 31.0824 31.1965 32.5425 28.3759 32.5425V34.0425ZM36.8759 28.6116L36.2177 27.8278L35.069 28.7923L35.7271 29.5761L36.8759 28.6116Z" fill="white"/>
<path fill-rule="evenodd" clip-rule="evenodd" d="M53.3465 28.31C51.4632 30.7928 48.855 32.2925 46.079 32.2925C40.6626 32.2925 35.8848 26.5831 35.8848 19.0015C35.8848 11.4198 40.6626 5.71045 46.079 5.71045C49.225 5.71045 52.1556 7.63663 54.0597 10.7371L54.7195 9.9149C52.6663 6.73655 49.558 4.71045 46.079 4.71045C39.8966 4.71045 34.8848 11.1088 34.8848 19.0015C34.8848 26.8942 39.8966 33.2925 46.079 33.2925C49.1753 33.2925 51.9781 31.6876 54.0046 29.0938L53.3465 28.31Z" fill="white"/>
<path d="M53.3465 28.31L53.9208 27.8278L53.3167 27.1083L52.7489 27.8568L53.3465 28.31ZM54.0597 10.7371L53.4206 11.1296L53.978 12.0372L54.6446 11.2065L54.0597 10.7371ZM54.7195 9.9149L55.3044 10.3843L55.643 9.96236L55.3494 9.50794L54.7195 9.9149ZM54.0046 29.0938L54.5956 29.5556L54.9697 29.0768L54.579 28.6116L54.0046 29.0938ZM52.7489 27.8568C50.9751 30.1953 48.5715 31.5425 46.079 31.5425V33.0425C49.1384 33.0425 51.9513 31.3904 53.944 28.7633L52.7489 27.8568ZM46.079 31.5425C41.2335 31.5425 36.6348 26.3453 36.6348 19.0015H35.1348C35.1348 26.821 40.0917 33.0425 46.079 33.0425V31.5425ZM36.6348 19.0015C36.6348 11.6577 41.2335 6.46045 46.079 6.46045V4.96045C40.0917 4.96045 35.1348 11.182 35.1348 19.0015H36.6348ZM46.079 6.46045C48.9021 6.46045 51.6169 8.19247 53.4206 11.1296L54.6988 10.3446C52.6944 7.08078 49.548 4.96045 46.079 4.96045V6.46045ZM54.6446 11.2065L55.3044 10.3843L54.1345 9.4455L53.4747 10.2677L54.6446 11.2065ZM55.3494 9.50794C53.1925 6.16892 49.87 3.96045 46.079 3.96045V5.46045C49.2459 5.46045 52.1401 7.30418 54.0895 10.3219L55.3494 9.50794ZM46.079 3.96045C39.3221 3.96045 34.1348 10.8755 34.1348 19.0015H35.6348C35.6348 11.3421 40.4711 5.46045 46.079 5.46045V3.96045ZM34.1348 19.0015C34.1348 27.1275 39.3221 34.0425 46.079 34.0425V32.5425C40.4711 32.5425 35.6348 26.6609 35.6348 19.0015H34.1348ZM46.079 34.0425C49.451 34.0425 52.457 32.2928 54.5956 29.5556L53.4136 28.6321C51.4991 31.0824 48.8997 32.5425 46.079 32.5425V34.0425ZM54.579 28.6116L53.9208 27.8278L52.7721 28.7923L53.4302 29.5761L54.579 28.6116Z" fill="white"/>
<rect x="22.9092" y="19.9985" width="2" height="31.2397" transform="rotate(-90 22.9092 19.9985)" fill="white"/>
<rect width="1.97559" height="36.0576" transform="matrix(0.804968 0.593319 -0.412062 0.911156 30.3467 2.38159)" fill="#1D1B1B"/>
<rect width="25.6061" height="5.2583" rx="1" transform="matrix(0.4161 -0.909319 0.801613 0.597843 12.5205 23.2842)" fill="#1D1B1B"/>
<rect width="0.686036" height="14.1991" transform="matrix(0.725647 0.688067 -0.502875 0.864359 40.4209 1.84387)" fill="#1D1B1B"/>
<rect width="0.701732" height="13.9101" transform="matrix(-0.658056 0.752969 -0.574593 -0.818439 39.6943 32.7125)" fill="#1D1B1B"/>
<circle cx="1.5" cy="18.175" r="1.5" fill="white"/>
<circle cx="60.8555" cy="18.175" r="1.5" fill="white"/>
</svg>
