<svg width="28" height="21" viewBox="0 0 28 21" fill="none" xmlns="http://www.w3.org/2000/svg">
<path fill-rule="evenodd" clip-rule="evenodd" d="M23.3741 14.4197C22.5429 15.0357 21.514 15.4 20.4 15.4C17.6386 15.4 15.4 13.1614 15.4 10.4C15.4 7.63858 17.6386 5.4 20.4 5.4C22.0052 5.4 23.4338 6.15645 24.3486 7.33233L25.2451 6.21828C24.0715 4.85974 22.3361 4 20.4 4C16.8654 4 14 6.86538 14 10.4C14 13.9346 16.8654 16.8 20.4 16.8C21.9436 16.8 23.3596 16.2535 24.465 15.3435L23.3741 14.4197Z" fill="white"/>
<path fill-rule="evenodd" clip-rule="evenodd" d="M17.629 5.59657C17.2026 5.82661 16.8134 6.11677 16.4728 6.45571C16.248 6.28032 16.0078 6.12372 15.7546 5.98828C16.037 5.71546 16.3582 5.44107 16.7136 5.17107L17.4123 5.41395C17.4859 5.47325 17.5581 5.53414 17.629 5.59657ZM13.3995 15.4C14.0738 15.4 14.7168 15.2665 15.3038 15.0246C15.61 15.3391 15.928 15.6302 16.2531 15.8929C16.3135 15.9417 16.374 15.9894 16.4345 16.036C15.5314 16.5234 14.4978 16.8 13.3995 16.8C11.2932 16.8 9.4246 15.7825 8.25832 14.2122L8.87992 12.5412C9.68206 14.2314 11.4043 15.4 13.3995 15.4ZM16.3736 14.4197C16.186 14.5587 15.9883 14.6849 15.7819 14.797C16.0374 15.0514 16.3002 15.2881 16.5674 15.504C16.6781 15.5935 16.7887 15.6787 16.8988 15.7595C17.0951 15.6311 17.284 15.4921 17.4645 15.3435L16.3736 14.4197ZM15.3715 5.80391C15.7059 5.47014 16.0931 5.13686 16.5238 4.81311C15.5998 4.29525 14.5341 4 13.3995 4C12.9188 4 12.4505 4.053 12.0001 4.15347L11.3781 5.82546C11.9962 5.55193 12.6801 5.4 13.3995 5.4C14.0998 5.4 14.7665 5.54396 15.3715 5.80391ZM8.74766 6.00451C9.41189 5.30178 10.2336 4.7495 11.1564 4.40412L10.4197 6.38458C9.19378 7.29581 8.39953 8.75515 8.39953 10.4C8.39953 10.7755 8.44091 11.1413 8.51937 11.4931L7.7834 13.4716C7.37462 12.7257 7.11008 11.8896 7.02734 11.0007L8.74766 6.00451Z" fill="white"/>
<path fill-rule="evenodd" clip-rule="evenodd" d="M9.07525 10H9V10.2023L9.07525 10ZM9.30491 11.4H23V10H9.8257L9.30491 11.4Z" fill="white"/>
<path d="M5.72168 14.7588L9.37793 4.20312H11.2236L6.47754 17H4.9834L0.246094 4.20312H2.08301L5.72168 14.7588Z" fill="white"/>
<circle cx="26.8" cy="10.8" r="0.8" fill="white"/>
<circle cx="0.8" cy="10.8" r="0.8" fill="white"/>
</svg>
