<svg width="94" height="80" viewBox="0 0 94 80" fill="none" xmlns="http://www.w3.org/2000/svg">
<path d="M5.58105 57.5912L8.4248 49.6888H9.1084V49.3197H6.79785V49.6888H7.8916L5.74512 55.6908L3.37988 49.6888H4.45996V49.3197H0.959961V49.6888H1.69824L4.36426 56.5111C4.58301 57.0671 4.75618 57.3907 4.88379 57.4818C4.98405 57.5547 5.13444 57.5912 5.33496 57.5912H5.58105ZM16.1904 51.89L16.1357 49.3197H9.46387V49.6888H10.5576V57.1537H9.46387V57.5228H16.1357L16.1904 54.9525H15.835L15.5615 55.8002C15.3245 56.5111 14.9691 56.9395 14.4951 57.0853C14.3402 57.1309 14.1715 57.1537 13.9893 57.1537H12.2393V53.5033H14.9326V53.0931H12.2393V49.6888H13.9893C14.6911 49.6888 15.1878 50.0534 15.4795 50.7826C15.516 50.8646 15.5479 50.9512 15.5752 51.0424L15.835 51.89H16.1904ZM23.915 51.89L23.8604 49.3197H17.1885V49.6888H18.2822V57.1537H17.1885V57.5228H23.8604L23.915 54.9525H23.5596L23.2861 55.8002C23.0492 56.5111 22.6937 56.9395 22.2197 57.0853C22.0648 57.1309 21.8962 57.1537 21.7139 57.1537H19.9639V53.5033H22.6572V53.0931H19.9639V49.6888H21.7139C22.4157 49.6888 22.9124 50.0534 23.2041 50.7826C23.2406 50.8646 23.2725 50.9512 23.2998 51.0424L23.5596 51.89H23.915ZM34.6885 56.9623C34.6794 57.3177 34.7523 57.5183 34.9072 57.5638C34.971 57.5821 35.0531 57.5912 35.1533 57.5912V54.9388H34.7432C34.3604 56.3151 33.6312 57.0808 32.5557 57.2357C32.4007 57.2539 32.2458 57.2631 32.0908 57.2631C30.4502 57.2448 29.6253 55.9506 29.6162 53.3802C29.6162 51.3842 30.1722 50.1674 31.2842 49.7299C31.5576 49.6296 31.8538 49.5795 32.1729 49.5795C33.2028 49.5795 33.9456 50.0853 34.4014 51.097C34.5016 51.334 34.5928 51.5983 34.6748 51.89H35.1123L35.0713 49.2513C34.8434 49.2513 34.7067 49.3288 34.6611 49.4838C34.6429 49.5749 34.6338 49.7071 34.6338 49.8802C33.8773 49.4154 33.0023 49.183 32.0088 49.183C30.5049 49.183 29.3564 49.7162 28.5635 50.7826C27.9984 51.5482 27.7158 52.4232 27.7158 53.4076C27.7158 54.5925 28.0941 55.586 28.8506 56.3881C29.6527 57.2357 30.7054 57.6595 32.0088 57.6595C32.9476 57.6504 33.8408 57.418 34.6885 56.9623ZM42.3721 57.5228L42.4268 54.6244H42.0713L41.7295 55.8002C41.5381 56.4382 41.2601 56.8438 40.8955 57.017C40.7041 57.1081 40.4808 57.1537 40.2256 57.1537H38.667V49.6888H39.8291V49.3197H35.8916V49.6888H36.9854V57.1537H35.8916V57.5228H42.3721ZM47.3213 49.183C46.1455 49.183 45.1475 49.5567 44.3271 50.3041C43.4613 51.097 43.0283 52.1224 43.0283 53.3802C43.0283 54.8295 43.5433 55.9551 44.5732 56.7572C45.348 57.3588 46.2503 57.6595 47.2803 57.6595C48.4469 57.6595 49.4359 57.2813 50.2471 56.5248C51.1038 55.7227 51.5322 54.6927 51.5322 53.4349C51.5322 51.9401 51.0036 50.8008 49.9463 50.017C49.1989 49.461 48.3239 49.183 47.3213 49.183ZM47.3213 57.2631C46.1911 57.2631 45.4665 56.6661 45.1475 55.472C45.0016 54.9161 44.9287 54.237 44.9287 53.4349C44.9287 51.0013 45.626 49.7207 47.0205 49.5931C47.1117 49.584 47.1982 49.5795 47.2803 49.5795C48.5016 49.5795 49.2445 50.3223 49.5088 51.808C49.5908 52.2637 49.6318 52.7878 49.6318 53.3802C49.6318 55.6224 49.0667 56.8939 47.9365 57.1947C47.7451 57.2403 47.54 57.2631 47.3213 57.2631ZM58.0537 57.5228C57.9808 57.295 57.8623 57.1719 57.6982 57.1537H56.7686V49.6888H57.1787C57.8441 49.6888 58.318 50.0261 58.6006 50.7006C58.6462 50.8099 58.6872 50.9239 58.7236 51.0424L59.0791 52.1771H59.4756L59.4209 49.3197H52.4482L52.3799 52.1771H52.79L53.1455 51.0424C53.3643 50.3314 53.7152 49.903 54.1982 49.7572C54.3441 49.7116 54.5081 49.6888 54.6904 49.6888H55.0869V57.1537H53.7881V57.5228H58.0537ZM64.001 57.5228C63.9463 57.295 63.8232 57.1719 63.6318 57.1537H62.9072V53.5033H66.6123V57.1537H65.5186V57.5228H69.374C69.3011 57.295 69.1826 57.1719 69.0186 57.1537H68.2939V49.6888H69.374V49.3197H65.5186V49.6888H66.6123V53.0931H62.9072V49.6888H64.001V49.3197H60.1318V49.6888H61.2256V57.1537H60.1318V57.5228H64.001ZM73.9678 57.5228C73.9131 57.295 73.79 57.1719 73.5986 57.1537H72.874V49.6888H73.9678V49.3197H70.0986V49.6888H71.1924V57.1537H70.0986V57.5228H73.9678ZM80.5576 49.6888H81.6787V55.2396L76.7295 49.3197H74.5557V49.6888H75.6494V57.1537H74.5557V57.5228H77.3721C77.3174 57.295 77.1943 57.1719 77.0029 57.1537H76.21V51.2611L81.5146 57.5912L82.2393 57.4545V49.6888H83.333V49.3197H80.5576V49.6888ZM88.8428 53.7767V54.1459H90.0322V56.5931C89.5947 57.0215 89.0342 57.2357 88.3506 57.2357C87.111 57.2357 86.3408 56.5521 86.04 55.1849C85.9307 54.6927 85.876 54.1094 85.876 53.4349C85.8851 50.8829 86.7327 49.6023 88.4189 49.5931C89.4307 49.5931 90.1553 50.0443 90.5928 50.9467C90.7477 51.2839 90.8799 51.6849 90.9893 52.1498H91.3857L91.3311 49.3334L90.0732 49.5931C89.4626 49.3197 88.82 49.183 88.1455 49.183C86.9515 49.183 85.9626 49.5567 85.1787 50.3041C84.3857 51.0788 83.9893 52.1042 83.9893 53.3802C83.9893 54.9571 84.5544 56.1329 85.6846 56.9076C86.4137 57.3998 87.2432 57.6459 88.1729 57.6459C88.9111 57.6459 89.5811 57.4955 90.1826 57.1947L91.6729 57.5228V54.1459H92.6025V53.7767H88.8428ZM23.3408 73.9623C23.3317 74.3177 23.4046 74.5183 23.5596 74.5638C23.6234 74.5821 23.7054 74.5912 23.8057 74.5912V71.9388H23.3955C23.0127 73.3151 22.2835 74.0808 21.208 74.2357C21.0531 74.2539 20.8981 74.2631 20.7432 74.2631C19.1025 74.2448 18.2777 72.9506 18.2686 70.3802C18.2686 68.3842 18.8245 67.1674 19.9365 66.7299C20.21 66.6296 20.5062 66.5795 20.8252 66.5795C21.8551 66.5795 22.598 67.0853 23.0537 68.097C23.154 68.334 23.2451 68.5983 23.3271 68.89H23.7646L23.7236 66.2513C23.4958 66.2513 23.359 66.3288 23.3135 66.4838C23.2952 66.5749 23.2861 66.7071 23.2861 66.8802C22.5296 66.4154 21.6546 66.183 20.6611 66.183C19.1572 66.183 18.0088 66.7162 17.2158 67.7826C16.6507 68.5482 16.3682 69.4232 16.3682 70.4076C16.3682 71.5925 16.7464 72.586 17.5029 73.3881C18.305 74.2357 19.3577 74.6595 20.6611 74.6595C21.5999 74.6504 22.4932 74.418 23.3408 73.9623ZM29.042 66.183C27.8662 66.183 26.8682 66.5567 26.0479 67.3041C25.182 68.097 24.749 69.1224 24.749 70.3802C24.749 71.8295 25.264 72.9551 26.2939 73.7572C27.0687 74.3588 27.971 74.6595 29.001 74.6595C30.1676 74.6595 31.1566 74.2813 31.9678 73.5248C32.8245 72.7227 33.2529 71.6927 33.2529 70.4349C33.2529 68.9401 32.7243 67.8008 31.667 67.017C30.9196 66.461 30.0446 66.183 29.042 66.183ZM29.042 74.2631C27.9118 74.2631 27.1872 73.6661 26.8682 72.472C26.7223 71.9161 26.6494 71.237 26.6494 70.4349C26.6494 68.0013 27.3467 66.7207 28.7412 66.5931C28.8324 66.584 28.9189 66.5795 29.001 66.5795C30.2223 66.5795 30.9652 67.3223 31.2295 68.808C31.3115 69.2637 31.3525 69.7878 31.3525 70.3802C31.3525 72.6224 30.7874 73.8939 29.6572 74.1947C29.4658 74.2403 29.2607 74.2631 29.042 74.2631ZM44.6006 66.3197H41.9072L39.2959 72.472L36.3291 66.3197H34.0322V66.6888H35.126V74.1537H34.0322V74.5228H36.7939C36.7393 74.295 36.6162 74.1719 36.4248 74.1537H35.7002V68.7806L38.6396 74.6322H38.8994L41.9072 67.6322V74.1537H40.8135V74.5228H44.6006C44.5459 74.295 44.4229 74.1719 44.2314 74.1537H43.5068V66.6888H44.6006V66.3197ZM48.9756 66.6888C49.8688 66.6888 50.3701 67.1947 50.4795 68.2064C50.4886 68.3249 50.4932 68.448 50.4932 68.5756C50.4932 69.7878 50.0055 70.4304 49.0303 70.5033C48.9756 70.5033 48.9209 70.5033 48.8662 70.5033H47.9639V66.6888H48.9756ZM49.3311 74.5228C49.2764 74.295 49.1533 74.1719 48.9619 74.1537H47.9639V70.9135H49.1123C50.6527 70.9135 51.6416 70.4486 52.0791 69.5189C52.2249 69.209 52.2979 68.8672 52.2979 68.4935C52.2979 67.6276 51.915 67.0079 51.1494 66.6342C50.721 66.4245 50.2015 66.3197 49.5908 66.3197H45.1885V66.6888H46.2822V74.1537H45.1885V74.5228H49.3311ZM61.2119 74.5228C61.2119 74.3132 61.1481 74.1947 61.0205 74.1674C60.984 74.1582 60.9339 74.1537 60.8701 74.1537H60.4463L57.2471 66.3197H56.3994L53.3916 74.1537H52.5166V74.5228H55.0049C55.0049 74.3132 54.9411 74.1947 54.8135 74.1674C54.7679 74.1582 54.7178 74.1537 54.6631 74.1537H53.9385L54.9365 71.5287H57.6982L58.7236 74.1537H57.7803V74.5228H61.2119ZM57.5342 71.1185H55.0869L56.3037 67.9193L57.5342 71.1185ZM67.4463 66.6888H68.5674V72.2396L63.6182 66.3197H61.4443V66.6888H62.5381V74.1537H61.4443V74.5228H64.2607C64.2061 74.295 64.083 74.1719 63.8916 74.1537H63.0986V68.2611L68.4033 74.5912L69.1279 74.4545V66.6888H70.2217V66.3197H67.4463V66.6888ZM76.2783 74.5228C76.2236 74.295 76.1006 74.1719 75.9092 74.1537H75.1299V71.0092L77.0576 67.0717C77.2308 66.8256 77.4632 66.698 77.7549 66.6888C77.9827 66.6342 78.1058 66.5111 78.124 66.3197H75.7041V66.6888H76.7979L74.8838 70.5443L72.8193 66.6888H73.8584V66.3197H70.2764V66.6888H70.96L73.4619 71.1185V74.1537H72.3135V74.5228H76.2783Z" fill="black"/>
<path d="M43.2504 1.22417C42.8907 1.99497 42.6338 2.66299 42.6338 2.76577C42.6338 2.86854 44.6379 3.07409 47.1558 3.22825C49.6224 3.43379 52.3459 3.69072 53.168 3.84488C55.1207 4.20459 57.2276 2.81715 55.9943 2.04635C54.5555 1.1214 51.6264 0.45337 47.7724 0.145051C43.9185 -0.111882 43.8671 -0.111882 43.2504 1.22417Z" fill="black"/>
<path d="M64.732 0.351013C56.767 1.68707 50.2409 8.059 48.5966 16.0239L47.9285 19.2613L42.0191 19.4154C36.3152 19.5696 36.1096 19.5696 35.5444 20.8029L34.9277 22.0875H41.3511H47.723L48.0313 23.9888C49.316 32.3135 51.577 36.373 56.9726 39.9187C64.2181 44.6463 74.9579 44.749 81.8951 40.0728C85.1324 37.8632 85.4921 37.3494 84.3102 36.2702C83.3853 35.3967 83.1797 35.4481 80.6618 37.1952C76.3453 40.1756 71.1553 41.152 65.6569 40.0728C61.4946 39.302 59.028 37.966 56.2018 35.1397C53.7866 32.7246 52.2964 29.8469 51.6798 26.4554C51.4742 25.3249 51.1659 23.8861 51.0117 23.218L50.7548 22.0875H66.993H83.2311V20.8029V19.5182H67.3013C49.3674 19.5182 50.909 19.9293 51.9367 15.4073C52.6561 12.2213 55.6365 8.059 58.7711 5.90076C65.3486 1.37875 75.7287 1.89261 81.8951 7.03127C83.2825 8.16178 83.4367 8.21316 84.3102 7.39098C85.6977 6.1577 84.8241 4.97581 81.0215 2.86896C76.4481 0.351013 70.3845 -0.573944 64.732 0.351013Z" fill="black"/>
<path d="M4.29968 3.69124C5.94406 7.95633 13.4979 26.3013 15.1423 30.0526C15.502 30.8747 16.4783 33.3413 17.3519 35.4481C20.6406 43.67 20.3323 43.2589 22.4905 43.0534C24.3405 42.8992 24.3918 42.7964 25.9848 38.7883C26.8584 36.5273 28.6055 32.365 29.7874 29.5387C30.9693 26.7124 32.5623 22.7557 33.3845 20.803C34.8233 17.2059 40.8869 2.35519 41.4522 1.12191C41.6063 0.710819 41.1439 0.505272 39.9106 0.505272C38.2662 0.505272 38.0607 0.710819 37.0329 3.02322C36.4677 4.41065 35.9538 5.90086 35.9538 6.26057C35.9538 6.67166 35.7483 7.18553 35.4913 7.44246C35.0802 7.95633 32.3568 14.4824 29.2736 22.3446C25.4196 32.1594 22.6961 38.5827 22.3364 38.6855C22.1308 38.7369 21.1031 36.5787 20.024 33.9065C18.9962 31.2344 16.7866 25.7875 15.1423 21.8307C13.5493 17.8739 11.5452 12.9922 10.7744 11.0395C6.25237 -0.368298 6.71485 0.505272 4.81355 0.505272H3.06641L4.29968 3.69124Z" fill="black"/>
<path d="M0.600803 19.6208C-0.272769 20.4944 -0.169996 22.3443 0.754963 23.1151C1.16606 23.4748 2.03963 23.629 2.81043 23.4234C5.02005 22.8582 4.35202 19.0042 2.03963 19.0042C1.57715 19.0042 0.960509 19.2611 0.600803 19.6208Z" fill="black"/>
<path d="M90.1665 20.0317C88.2652 22.1386 91.3998 25.0162 93.4039 23.0121C94.2774 22.1386 94.1747 20.7511 93.1983 19.8262C92.1192 18.7471 91.297 18.7984 90.1665 20.0317Z" fill="black"/>
<path d="M29.7876 34.2148C28.9654 36.2703 29.1709 36.7841 31.175 38.5313C36.5192 43.2588 45.9229 44.8518 53.5282 42.3339C56.56 41.3575 56.8683 40.8437 55.2753 39.8159C54.1448 39.0451 53.7851 39.0451 50.7533 39.8673C44.3813 41.5117 37.3414 39.7646 32.8708 35.4481L30.25 32.9301L29.7876 34.2148Z" fill="black"/>
</svg>
