<svg width="5" height="7" viewBox="0 0 5 7" fill="none" xmlns="http://www.w3.org/2000/svg">
<path d="M0.829615 6.99997C0.936345 7.00022 1.0418 6.98374 1.13823 6.95172C1.23466 6.91971 1.31962 6.87299 1.38686 6.81498L4.83748 3.81527C4.94256 3.72581 5 3.6136 5 3.4978C5 3.38199 4.94256 3.26978 4.83748 3.18033L1.26541 0.180609C1.14414 0.0785104 0.96989 0.0143043 0.780981 0.00211555C0.592071 -0.0100732 0.403979 0.0307539 0.258083 0.115615C0.112188 0.200476 0.0204401 0.322421 0.00302267 0.454621C-0.0143943 0.586822 0.0439458 0.71845 0.165209 0.820549L3.35864 3.5003L0.272372 6.18004C0.185011 6.25343 0.129518 6.34279 0.112458 6.43756C0.0953979 6.53232 0.117485 6.62852 0.176107 6.71478C0.234729 6.80104 0.327431 6.87373 0.443245 6.92427C0.559059 6.97482 0.693138 7.00108 0.829615 6.99997Z" fill="white"/>
</svg>
