<svg width="5" height="7" viewBox="0 0 5 7" fill="none" xmlns="http://www.w3.org/2000/svg">
<path d="M4.17038 6.99997C4.06366 7.00022 3.9582 6.98374 3.86177 6.95172C3.76534 6.91971 3.68038 6.87299 3.61314 6.81498L0.162521 3.81527C0.0574434 3.72581 0 3.6136 0 3.4978C0 3.38199 0.0574434 3.26978 0.162521 3.18033L3.73459 0.180609C3.85586 0.0785104 4.03011 0.0143043 4.21902 0.00211555C4.40793 -0.0100732 4.59602 0.0307539 4.74192 0.115615C4.88781 0.200476 4.97956 0.322421 4.99698 0.454621C5.01439 0.586822 4.95605 0.71845 4.83479 0.820549L1.64136 3.5003L4.72763 6.18004C4.81499 6.25343 4.87048 6.34279 4.88754 6.43756C4.9046 6.53232 4.88251 6.62852 4.82389 6.71478C4.76527 6.80104 4.67257 6.87373 4.55675 6.92427C4.44094 6.97482 4.30686 7.00108 4.17038 6.99997Z" fill="white"/>
</svg>
