<svg width="24" height="20" viewBox="0 0 24 20" fill="none" xmlns="http://www.w3.org/2000/svg">
<path d="M20.9048 5.32997C20.92 5.53413 20.92 5.73713 20.92 5.94013C20.92 12.1526 16.1915 19.3113 7.55001 19.3113C4.88767 19.3113 2.41434 18.5401 0.333008 17.2008C0.711008 17.244 1.07501 17.2591 1.46817 17.2591C3.58333 17.2642 5.63859 16.557 7.30267 15.2513C6.322 15.2336 5.37135 14.91 4.58345 14.3258C3.79556 13.7416 3.20976 12.926 2.90784 11.9928C3.19834 12.036 3.49001 12.0651 3.79567 12.0651C4.21684 12.0651 4.64034 12.0068 5.03351 11.9053C3.96923 11.6904 3.01223 11.1135 2.32523 10.2728C1.63823 9.43199 1.26365 8.37922 1.26517 7.29347V7.23513C1.89167 7.58397 2.61851 7.80213 3.38851 7.8313C2.74344 7.40265 2.21451 6.82099 1.8489 6.13822C1.48329 5.45545 1.29237 4.6928 1.29317 3.9183C1.29317 3.04563 1.52534 2.2453 1.93251 1.54763C3.11334 3.00016 4.58609 4.18845 6.2554 5.03557C7.9247 5.88268 9.75333 6.36972 11.6228 6.46513C11.5505 6.11513 11.5062 5.7523 11.5062 5.3883C11.5059 4.77109 11.6272 4.15987 11.8633 3.58958C12.0993 3.01929 12.4455 2.50112 12.8819 2.06468C13.3183 1.62825 13.8365 1.28211 14.4068 1.04606C14.9771 0.810001 15.5883 0.688659 16.2055 0.688965C17.5588 0.688965 18.7803 1.25597 19.639 2.17297C20.6911 1.96952 21.7 1.58546 22.621 1.0378C22.2703 2.12375 21.5357 3.04459 20.5548 3.6278C21.4879 3.52137 22.3998 3.27599 23.2603 2.8998C22.6177 3.83675 21.8213 4.65837 20.9048 5.32997Z" fill="white"/>
</svg>
