<svg width="28" height="28" viewBox="0 0 28 28" fill="none" xmlns="http://www.w3.org/2000/svg">
<path d="M23.7999 4.06881C22.5148 2.77432 20.9854 1.74805 19.3003 1.04958C17.6153 0.35111 15.8083 -0.00563248 13.9842 6.72349e-05C6.33848 6.72349e-05 0.1155 6.22305 0.1155 13.874C0.1155 16.3188 0.755998 18.7093 1.96875 20.8093L0 28L7.35523 26.0698C9.38866 27.1774 11.6669 27.7585 13.9825 27.7603H13.9877C21.6334 27.7603 27.8617 21.5373 27.8617 13.8863C27.8663 12.0629 27.5096 10.2566 26.8122 8.5718C26.1147 6.88703 25.0903 5.35715 23.7982 4.07056L23.7999 4.06881ZM13.9877 25.4188C11.9212 25.4191 9.89272 24.8636 8.11473 23.8105L7.69298 23.5585L3.32849 24.7013L4.49399 20.447L4.22099 20.0095C3.06207 18.1734 2.44963 16.0453 2.45524 13.874C2.45895 10.8152 3.67607 7.88278 5.83949 5.72035C8.00291 3.55791 10.9359 2.34213 13.9947 2.33981C17.073 2.33981 19.9727 3.54381 22.1479 5.71905C23.2214 6.78863 24.0723 8.06032 24.6514 9.46065C25.2305 10.861 25.5264 12.3622 25.5219 13.8775C25.5167 20.2423 20.3437 25.417 13.9877 25.417V25.4188ZM20.3105 16.779C19.9657 16.604 18.2595 15.7675 17.9427 15.652C17.626 15.5365 17.395 15.477 17.1605 15.827C16.9312 16.1718 16.2645 16.954 16.0615 17.1885C15.8585 17.4178 15.6572 17.451 15.3125 17.276C14.9677 17.101 13.846 16.7353 12.523 15.554C11.494 14.6353 10.7957 13.4978 10.5927 13.153C10.3897 12.8083 10.57 12.6175 10.7467 12.4478C10.906 12.2938 11.0915 12.0435 11.2665 11.8405C11.4415 11.6375 11.4957 11.4958 11.6112 11.2613C11.7267 11.032 11.6707 10.829 11.5832 10.654C11.4957 10.479 10.801 8.7728 10.5175 8.07805C10.2392 7.39905 9.94873 7.49355 9.73523 7.4813C9.53223 7.4708 9.30298 7.4708 9.07373 7.4708C8.84448 7.4708 8.46648 7.5583 8.14973 7.90305C7.83298 8.2478 6.93523 9.08955 6.93523 10.7958C6.93523 12.502 8.17598 14.1488 8.35098 14.3833C8.52598 14.6125 10.7957 18.1178 14.273 19.6175C15.099 19.9728 15.7447 20.1863 16.247 20.3508C17.0782 20.6133 17.8325 20.5748 18.4292 20.4873C19.096 20.3893 20.4802 19.6508 20.7707 18.8405C21.0612 18.0303 21.0612 17.3373 20.9737 17.1938C20.8914 17.0398 20.6622 16.954 20.3122 16.7773L20.3105 16.779Z" fill="white"/>
</svg>
